# xmcd
#
# Track frame offsets:
#	150
#	18201
#	31050
#	47856
#	63334
#	77464
#	93745
#	110197
#	123083
#	138248
#	153673
#	171528
#	184933
#
# Disc length: 2658 seconds
#
# Revision: 3
# Processed by: cddbd v1.5.1PL0 Copyright (c) Steve Scherf et al.
# Submitted via: audiograbber 1.83.01
#
DISCID=ac0a600d
DTITLE=Lee Greenwood - All Time Greatest Hits
DYEAR=2004
DGENRE=Country
TTITLE0=Love Will Find It's Way To You
TTITLE1=Holdin' A Good Hand
TTITLE2=Ring On Her Finger, Time On He
TTITLE3=Morning Ride
TTITLE4=I.O.U.
TTITLE5=Somebody's Gonna Love You
TTITLE6=It Turns Me Inside Out
TTITLE7=Touch And Go Crazy
TTITLE8=Dixie Road
TTITLE9=I Don't Mind The Thorns
TTITLE10=Wind Beneath My Wings
TTITLE11=Between A Rock And A Heartache
TTITLE12=God Bless The USA
EXTD=
EXTT0=
EXTT1=
EXTT2=
EXTT3=
EXTT4=
EXTT5=
EXTT6=
EXTT7=
EXTT8=
EXTT9=
EXTT10=
EXTT11=
EXTT12=
PLAYORDER=
